#!OML:ASF E:\inclinewalkrobotboard\Project 1\Capture day 1\Session 1\subject1.ASF
:FULLY-SPECIFIED
:DEGREES
158
root 9.89458 16.3172 -7.87584 8.42374 -3.31426 0.588894
lowerback -10.4085 0.360113 -6.84698
upperback -0.70786 1.22919 0.951156
thorax 4.93946 0.447979 5.04404
lowerneck -9.35565 -1.58864 -3.05435
upperneck 36.0414 -2.84602 3.37284
head 13.895 -1.22096 1.49608
rclavicle -3.88717e-015 -1.2424e-015
rhumerus -21.9233 -3.57135 -96.2601
rradius 110.48
rwrist -34.0141
rhand -46.7561 -59.6889
rfingers 7.12502
rthumb -19.4728 -448.734
lclavicle -3.88717e-015 -1.2424e-015
lhumerus -14.0572 8.28426 91.9608
lradius 120.1
lwrist 42.4913
lhand -67.2439 324.644
lfingers 7.12502
lthumb -39.0168 -9.84101
rfemur -3.43812 3.57517 14.4284
rtibia 5.28414
rfoot -11.0308 -4.77899
rtoes -36.8886
lfemur -4.11625 -6.52637 -17.9058
ltibia 5.26988
lfoot -11.8896 0.840167
ltoes -56.0723
159
root 9.89237 16.3196 -7.88372 8.40018 -3.41994 0.485187
lowerback -10.3395 0.355874 -6.86981
upperback -0.761312 1.21402 1.05358
thorax 4.84366 0.444253 5.16104
lowerneck -9.34652 -1.61992 -3.16131
upperneck 36.1927 -2.90665 3.4615
head 13.9688 -1.2509 1.54473
rclavicle 5.41611e-015 -1.3977e-014
rhumerus -21.7505 -4.01583 -95.9564
rradius 108.884
rwrist -30.9491
rhand -46.741 -64.4394
rfingers 7.12502
rthumb -19.4583 -626.514
lclavicle 5.41611e-015 -1.3977e-014
lhumerus -14.3731 7.56814 91.5768
lradius 118.454
lwrist 36.0307
lhand -67.1984 325.776
lfingers 7.12502
lthumb -38.9739 -8.69635
rfemur -3.51983 3.67498 14.5532
rtibia 5.37113
rfoot -11.0016 -4.76528
rtoes -36.7728
lfemur -4.18182 -6.65274 -17.7709
ltibia 5.40823
lfoot -11.9749 1.07925
ltoes -56.0979
160
root 9.89356 16.3223 -7.88612 8.3774 -3.4996 0.365619
lowerback -10.3885 0.359308 -6.79976
upperback -0.742689 1.21168 1.10948
thorax 4.89123 0.441615 5.18186
lowerneck -9.44575 -1.66439 -3.20363
upperneck 36.3229 -3.00871 3.57577
head 14.0591 -1.2856 1.58554
rclavicle -2.75464e-015 -8.36138e-015
rhumerus -21.5203 -3.95515 -95.372
rradius 106.755
rwrist -27.6754
rhand -46.2742 -66.2925
rfingers 7.12502
rthumb -19.0094 -624.616
lclavicle -2.75464e-015 -8.36138e-015
lhumerus -14.6218 7.0755 91.0715
lradius 116.471
lwrist 27.3396
lhand -65.976 331.504
lfingers 7.12502
lthumb -37.8203 -2.64823
rfemur -3.51306 3.60067 14.6813
rtibia 5.36913
rfoot -10.9586 -4.62577
rtoes -36.8739
lfemur -4.15161 -6.68299 -17.6589
ltibia 5.4488
lfoot -12.028 1.27132
ltoes -56.4221
161
root 9.89495 16.3233 -7.89417 8.26889 -3.63932 0.585363
lowerback -10.3153 0.38371 -7.03026
upperback -0.717726 1.27039 1.03103
thorax 4.86562 0.46677 5.23615
lowerneck -9.39668 -1.76464 -3.22757
upperneck 36.4303 -3.18261 3.63736
head 14.1083 -1.35734 1.5916
rclavicle 3.27684e-016 7.35503e-015
rhumerus -21.8206 -3.84742 -94.6449
rradius 104.861
rwrist -23.5209
rhand -45.5316 -67.962
rfingers 7.12502
rthumb -18.2951 -622.878
lclavicle 3.27684e-016 7.35503e-015
lhumerus -14.9668 6.97411 90.5504
lradius 114.13
lwrist 16.0369
lhand -63.9419 340.253
lfingers 7.12502
lthumb -35.8959 6.59524
rfemur -3.48427 3.57829 14.3985
rtibia 5.37889
rfoot -10.9203 -4.54352
rtoes -37.0517
lfemur -4.07047 -6.64156 -17.9371
ltibia 5.47341
lfoot -12.0621 1.35021
ltoes -56.6484
162
root 9.89745 16.3248 -7.90081 8.27284 -3.72204 0.605865
lowerback -10.3597 0.438218 -7.00825
upperback -0.738093 1.34555 0.980912
thorax 4.85998 0.505656 5.18152
lowerneck -9.24356 -1.91338 -3.23232
upperneck 36.5273 -3.42525 3.66988
head 14.132 -1.46096 1.57291
rclavicle 1.79838e-015 5.98839e-015
rhumerus -22.2195 -4.02955 -93.8255
rradius 102.981
rwrist -18.0099
rhand -45.0844 -70.4177
rfingers 7.12502
rthumb -17.8649 -620.383
lclavicle 1.79838e-015 5.98839e-015
lhumerus -15.5506 7.22484 89.9703
lradius 111.743
lwrist 2.91785
lhand -60.7435 351.786
lfingers 7.12502
lthumb -32.8594 18.8155
rfemur -3.58703 3.48746 14.3505
rtibia 5.49132
rfoot -10.9508 -4.42908
rtoes -37.2609
lfemur -4.10904 -6.587 -17.9572
ltibia 5.48957
lfoot -12.0816 1.23964
ltoes -56.2304
163
root 9.89882 16.325 -7.90452 8.28874 -3.80534 0.552718
lowerback -10.5112 0.463257 -6.93724
upperback -0.696994 1.38313 0.983419
thorax 4.98457 0.519494 5.15399
lowerneck -9.12038 -2.02019 -3.19672
upperneck 36.4646 -3.57253 3.60381
head 14.0803 -1.53066 1.51796
rclavicle -7.38609e-015 2.01518e-014
rhumerus -22.6263 -4.59597 -92.9086
rradius 101.213
rwrist -10.6201
rhand -43.8928 -70.5221
rfingers 7.12502
rthumb -16.718 -620.178
lclavicle -7.38609e-015 2.01518e-014
lhumerus -16.2687 7.84893 89.1347
lradius 108.995
lwrist -11.6699
lhand -56.0544 357.723
lfingers 7.12502
lthumb -28.3882 25.5904
rfemur -3.67157 3.5632 14.4078
rtibia 5.56353
rfoot -10.9853 -4.42052
rtoes -37.1517
lfemur -4.13794 -6.54808 -17.8759
ltibia 5.47745
lfoot -12.101 1.08917
ltoes -55.4029
164
root 9.89831 16.3248 -7.91021 8.29281 -3.89753 0.519925
lowerback -10.528 0.457474 -6.91154
upperback -0.681419 1.37319 1.00149
thorax 5.012 0.513413 5.15796
lowerneck -9.06273 -2.09676 -3.22205
upperneck 36.348 -3.64809 3.5139
head 14.0157 -1.58047 1.47342
rclavicle 3.44612e-015 6.80837e-015
rhumerus -23.0344 -5.45587 -91.8306
rradius 100.049
rwrist -1.35513
rhand -40.8094 -67.8221
rfingers 7.12502
rthumb -13.748 -622.652
lclavicle 3.44612e-015 6.80837e-015
lhumerus -17.0553 9.00483 87.9273
lradius 106.709
lwrist -25.6564
lhand -50.051 357.29
lfingers 7.12502
lthumb -22.6381 25.9821
rfemur -3.76005 3.79816 14.4575
rtibia 5.6105
rfoot -10.9769 -4.56264
rtoes -37.0964
lfemur -4.17838 -6.47957 -17.7886
ltibia 5.4841
lfoot -12.1115 1.01481
ltoes -54.8908
165
root 9.89777 16.325 -7.91857 8.27928 -3.95436 0.484354
lowerback -10.3284 0.475506 -6.86012
upperback -0.764897 1.3738 0.996704
thorax 4.81296 0.525229 5.11662
lowerneck -9.0369 -2.21012 -3.32532
upperneck 36.3481 -3.81702 3.57154
head 14.0224 -1.66168 1.49086
rclavicle 8.79001e-016 9.64106e-015
rhumerus -23.9129 -6.50111 -90.7192
rradius 99.8202
rwrist 9.35558
rhand -35.3435 -64.7036
rfingers 7.12502
rthumb -8.47623 -625.487
lclavicle 8.79001e-016 9.64106e-015
lhumerus -17.9357 9.82854 86.5789
lradius 105.276
lwrist -38.4452
lhand -39.8987 358.926
lfingers 7.12502
lthumb -12.8702 28.5096
rfemur -3.84467 4.11575 14.5227
rtibia 5.68458
rfoot -10.9689 -4.80365
rtoes -36.9956
lfemur -4.24334 -6.34412 -17.6895
ltibia 5.54559
lfoot -12.0853 0.985158
ltoes -54.9993
166
root 9.89822 16.325 -7.92349 8.24657 -3.94078 0.408264
lowerback -10.2225 0.493115 -6.74515
upperback -0.804827 1.37446 1.00626
thorax 4.71371 0.532903 5.05785
lowerneck -9.45684 -2.4475 -3.20424
upperneck 36.7013 -4.09311 3.24673
head 14.284 -1.8011 1.29603
rclavicle 8.61918e-015 6.11263e-015
rhumerus -25.0997 -7.35537 -89.7119
rradius 99.9676
rwrist 20.4639
rhand -27.8817 -62.4666
rfingers 7.12502
rthumb -1.27165 -627.557
lclavicle 8.61918e-015 6.11263e-015
lhumerus -18.603 9.62817 85.518
lradius 104.144
lwrist -49.0762
lhand -28.0883 363.432
lfingers 7.12502
lthumb -1.4712 33.4065
rfemur -3.86308 4.39582 14.648
rtibia 5.77004
rfoot -11.0069 -5.05664
rtoes -36.895
lfemur -4.26897 -6.17969 -17.5594
ltibia 5.60305
lfoot -12.0246 0.883553
ltoes -55.2024
